<svg xmlns="http://www.w3.org/2000/svg" fill="currentColor" viewBox="0 0 496 512">
  <path d="M165.9 397.4c0 2-2.3 3.6-5.2 3.6-3.3 0-5.6-1.6-5.6-3.6 0-2 2.3-3.6 5.2-3.6 3.2 0 5.6 1.6 5.6 3.6zm-32.1-6.7c-.7 2 1.6 4.3 5.2 4.9 3.3.7 6.9-.3 7.6-2.3.7-2-1.6-4.3-5.2-5-3.6-.6-6.9.4-7.6 2.4zm44.2-1.1c-2.9 1.3-2.3 5.6 1.3 9.2 3.6 3.6 8.9 5.2 11.2 3.6 2.3-1.3 1.6-5.6-1.3-9.2-3.6-3.6-9.2-5.2-11.2-3.6zM244 8C106.1 8 0 113.3 0 251.9c0 108.3 69.8 200.2 166.5 232.6 12.3 2.3 16.8-5.2 16.8-11.6 0-5.6-.3-24.9-.3-45.3-61 13.6-73.9-26.3-73.9-26.3-11.3-29.3-27.6-37-27.6-37-22.6-15.6 1.6-15.6 1.6-15.6 24.9 1.6 38.1 25.6 38.1 25.6 22.3 38.9 58.5 27.6 72.8 21 2.3-16.8 8.9-27.6 16.2-34-54.6-6.2-112-27.6-112-123.1 0-27.6 9.8-50.2 25.9-67.8-2.6-6.2-11.2-32 2.6-66.4 0 0 21.3-6.9 69.5 25.9 20.3-5.6 42-8.2 63.7-8.2s43.4 2.6 63.7 8.2c48.2-32.8 69.5-25.9 69.5-25.9 13.8 34.5 5.2 60.2 2.6 66.4 16.1 17.6 25.9 40.2 25.9 67.8 0 95.9-57.6 116.8-112.5 123.1 9.2 7.9 17.4 23.5 17.4 47.5 0 34.3-.3 61.7-.3 70.3 0 6.3 4.6 13.9 16.8 11.6C426.2 452 496 360.2 496 251.9 496 113.3 383.9 8 244 8z"></path>
</svg>
